<svg xmlns="http://www.w3.org/2000/svg" xmlns:xlink="http://www.w3.org/1999/xlink" width="1500" zoomAndPan="magnify" viewBox="0 0 1125 1124.99995" height="1500" preserveAspectRatio="xMidYMid meet" version="1.0"><path fill="#085044" d="M 582.007812 17.574219 C 274.230469 55.695312 60.640625 290.59375 60.640625 591.640625 C 60.640625 845.597656 203.597656 1035.085938 446.335938 1102.914062 C 506.882812 1119.734375 661.054688 1123.660156 728.324219 1110.765625 C 840.445312 1088.339844 996.855469 1021.070312 996.855469 994.71875 C 996.855469 991.917969 1013.675781 942.582031 1033.855469 885.960938 C 1073.664062 774.398438 1074.21875 762.628906 1042.265625 766.550781 C 1030.496094 767.671875 1023.207031 777.203125 1002.464844 814.203125 C 943.601562 921.839844 856.144531 976.777344 733.371094 982.386719 C 576.960938 989.671875 462.035156 903.898438 441.292969 764.308594 C 428.398438 676.292969 445.777344 629.199219 550.050781 472.230469 C 593.78125 406.640625 636.386719 340.484375 645.355469 325.910156 C 664.976562 292.273438 668.339844 293.957031 699.734375 348.335938 C 713.75 372.441406 748.507812 426.820312 775.976562 468.304688 C 862.871094 597.808594 879.128906 633.6875 879.128906 697.035156 C 879.128906 788.414062 815.78125 874.1875 739.539062 886.523438 C 691.886719 893.808594 680.113281 917.355469 724.402344 916.792969 C 822.507812 915.671875 925.660156 838.308594 949.769531 747.488281 C 974.992188 651.625 949.769531 587.15625 808.492188 383.09375 C 735.050781 277.136719 714.871094 241.257812 694.6875 181.273438 C 677.3125 129.136719 666.097656 120.726562 654.886719 149.878906 C 624.054688 232.289062 608.355469 259.757812 532.113281 370.199219 C 446.335938 493.535156 431.761719 515.394531 411.578125 556.320312 C 308.988281 762.066406 389.15625 973.976562 592.097656 1033.960938 C 624.613281 1043.492188 635.261719 1058.066406 612.28125 1061.433594 C 590.976562 1064.234375 522.582031 1046.855469 485.019531 1028.917969 C 343.75 959.960938 280.398438 797.945312 325.808594 622.476562 C 333.65625 591.640625 343.75 529.972656 348.792969 485.125 C 375.140625 236.214844 464.839844 99.425781 622.371094 69.714844 C 764.207031 42.804688 915.566406 167.816406 982.839844 367.394531 C 994.617188 402.714844 995.738281 403.835938 1015.355469 405.515625 C 1039.464844 407.757812 1041.148438 402.714844 1034.980469 350.578125 C 1032.738281 330.394531 1029.371094 264.246094 1027.132812 203.136719 L 1023.207031 92.136719 L 1008.632812 84.847656 C 916.128906 37.199219 700.292969 3 582.007812 17.574219 Z M 582.007812 17.574219 " fill-opacity="1" fill-rule="nonzero"/></svg>