<svg xmlns="http://www.w3.org/2000/svg" xmlns:xlink="http://www.w3.org/1999/xlink" width="2400" zoomAndPan="magnify" viewBox="0 0 1800 599.999999" height="800" preserveAspectRatio="xMidYMid meet" version="1.0"><defs><clipPath id="ce92e79ef7"><path d="M 1526 146.164062 L 1747 146.164062 L 1747 452 L 1526 452 Z M 1526 146.164062 " clip-rule="nonzero"/></clipPath></defs><path fill="#085044" d="M 759.617188 150.683594 C 711.625 158.605469 681.917969 181.914062 674.148438 218.023438 C 671.402344 230.667969 671.554688 238.285156 674.453125 250.625 C 681.917969 282.773438 701.570312 299.226562 767.691406 328.328125 C 816.75 349.960938 833.507812 365.804688 833.507812 390.640625 C 833.507812 437.414062 774.242188 452.039062 730.210938 416.234375 C 715.585938 404.199219 691.515625 367.175781 685.421875 347.066406 C 681.15625 332.59375 669.726562 333.660156 671.25 348.4375 C 673.230469 368.089844 675.0625 400.695312 675.0625 414.558594 C 675.0625 427.203125 675.519531 429.640625 677.804688 430.859375 C 681.917969 433.144531 720.308594 444.269531 732.953125 446.859375 C 823.148438 465.597656 891.554688 427.8125 891.402344 359.253906 C 891.402344 319.492188 871.140625 296.179688 815.53125 271.652344 C 803.191406 266.167969 785.972656 258.550781 777.136719 254.589844 C 746.972656 241.332031 733.105469 229.449219 729.90625 213.757812 C 721.832031 174.753906 767.539062 150.835938 809.285156 172.164062 C 825.128906 180.238281 845.085938 204.617188 857.429688 231.125 C 864.132812 245.597656 865.960938 248.1875 869.617188 248.1875 C 872.511719 248.1875 876.320312 243.464844 875.40625 240.722656 C 874.035156 236.304688 870.378906 203.550781 869.160156 185.875 C 868.398438 172.925781 867.484375 168.507812 865.503906 166.679688 C 861.542969 163.175781 817.054688 152.511719 801.972656 151.445312 C 773.785156 149.617188 766.929688 149.464844 759.617188 150.683594 Z M 759.617188 150.683594 " fill-opacity="1" fill-rule="nonzero"/><path fill="#085044" d="M 204.289062 151.597656 C 120.644531 161.957031 62.597656 225.792969 62.597656 307.605469 C 62.597656 376.625 101.449219 428.117188 167.417969 446.554688 C 183.871094 451.125 225.769531 452.191406 244.050781 448.6875 C 274.523438 442.59375 317.03125 424.308594 317.03125 417.148438 C 317.03125 416.386719 321.601562 402.980469 327.085938 387.59375 C 337.902344 357.273438 338.054688 354.074219 329.371094 355.140625 C 326.171875 355.445312 324.191406 358.035156 318.554688 368.089844 C 302.554688 397.34375 278.789062 412.273438 245.421875 413.796875 C 202.917969 415.777344 171.683594 392.46875 166.046875 354.53125 C 162.542969 330.613281 167.265625 317.816406 195.605469 275.15625 C 207.488281 257.332031 219.066406 239.351562 221.503906 235.390625 C 226.835938 226.25 227.75 226.707031 236.28125 241.484375 C 240.089844 248.035156 249.539062 262.816406 257.003906 274.089844 C 280.617188 309.28125 285.035156 319.035156 285.035156 336.25 C 285.035156 361.082031 267.820312 384.394531 247.097656 387.746094 C 234.148438 389.726562 230.949219 396.125 242.984375 395.972656 C 269.648438 395.667969 297.679688 374.644531 304.230469 349.960938 C 311.089844 323.910156 304.230469 306.386719 265.839844 250.929688 C 245.878906 222.136719 240.394531 212.386719 234.910156 196.085938 C 230.1875 181.914062 227.140625 179.628906 224.09375 187.550781 C 215.714844 209.949219 211.449219 217.414062 190.730469 247.425781 C 167.417969 280.945312 163.457031 286.886719 157.972656 298.007812 C 130.09375 353.921875 151.878906 411.511719 207.03125 427.8125 C 215.867188 430.402344 218.761719 434.367188 212.515625 435.28125 C 206.726562 436.042969 188.140625 431.316406 177.929688 426.441406 C 139.539062 407.703125 122.320312 363.671875 134.664062 315.988281 C 136.796875 307.605469 139.539062 290.847656 140.910156 278.660156 C 148.070312 211.015625 172.445312 173.839844 215.257812 165.765625 C 253.804688 158.453125 294.9375 192.429688 313.222656 246.664062 C 316.421875 256.265625 316.726562 256.570312 322.058594 257.027344 C 328.609375 257.636719 329.066406 256.265625 327.390625 242.09375 C 326.78125 236.609375 325.867188 218.632812 325.257812 202.027344 L 324.191406 171.859375 L 320.230469 169.878906 C 295.089844 156.929688 236.433594 147.636719 204.289062 151.597656 Z M 204.289062 151.597656 " fill-opacity="1" fill-rule="nonzero"/><path fill="#085044" d="M 560.949219 156.320312 C 556.378906 159.976562 559.882812 164.546875 569.328125 167.136719 C 582.277344 170.792969 593.398438 184.199219 597.359375 200.960938 C 600.863281 215.433594 600.40625 358.796875 596.902344 371.289062 C 586.542969 407.703125 562.777344 426.441406 526.820312 426.441406 C 490.101562 426.441406 466.640625 406.484375 458.566406 368.546875 C 455.367188 353.3125 455.976562 203.09375 459.328125 191.515625 C 462.984375 178.867188 467.402344 173.382812 478.21875 168.203125 C 483.398438 165.765625 487.96875 162.71875 488.425781 161.804688 C 490.558594 156.167969 489.339844 156.015625 422.457031 156.167969 L 357.402344 156.320312 L 356.945312 160.28125 C 356.488281 163.480469 357.402344 164.394531 363.191406 166.679688 C 371.269531 169.726562 378.277344 176.582031 382.085938 184.960938 C 384.675781 190.601562 384.828125 197.609375 384.828125 277.898438 L 384.828125 364.738281 L 388.789062 376.472656 C 404.175781 421.414062 435.867188 444.117188 490.710938 449.449219 C 558.359375 456.152344 602.691406 428.421875 614.273438 372.355469 C 617.167969 358.1875 617.472656 351.332031 617.777344 277.136719 C 618.082031 188.3125 617.777344 190.601562 628.289062 178.714844 C 634.078125 172.164062 643.675781 165.917969 648.09375 165.917969 C 651.292969 165.917969 655.40625 160.585938 654.339844 157.84375 C 653.273438 154.949219 648.398438 153.121094 646.113281 154.492188 C 643.980469 155.710938 573.441406 155.863281 568.261719 154.492188 C 565.671875 153.882812 563.386719 154.492188 560.949219 156.320312 Z M 560.949219 156.320312 " fill-opacity="1" fill-rule="nonzero"/><g clip-path="url(#ce92e79ef7)"><path fill="#085044" d="M 1615.894531 147.550781 C 1555.53125 156.09375 1521.371094 195.402344 1529.765625 246.785156 C 1535.066406 279.765625 1557.003906 298.316406 1625.90625 328.351562 C 1672.429688 348.523438 1685.683594 361.183594 1687.007812 386.800781 C 1688.183594 409.035156 1677.878906 425.964844 1659.328125 432.445312 C 1647.402344 436.566406 1623.257812 436.269531 1612.066406 431.855469 C 1582.914062 420.371094 1557.148438 388.570312 1540.953125 344.398438 C 1538.304688 337.183594 1535.066406 334.976562 1529.617188 336.597656 C 1526.671875 337.628906 1526.527344 338.363281 1527.410156 347.492188 C 1527.851562 352.792969 1528.585938 371.785156 1529.027344 389.597656 C 1530.207031 433.914062 1527.410156 429.203125 1557.148438 438.183594 C 1616.628906 456.292969 1658.003906 456.292969 1695.988281 438.039062 C 1748.84375 412.421875 1763.566406 344.988281 1725.140625 303.910156 C 1710.859375 288.597656 1698.195312 281.238281 1655.648438 262.980469 C 1598.964844 238.6875 1586.300781 228.234375 1584.535156 204.824219 C 1582.03125 170.078125 1623.257812 150.054688 1660.359375 167.574219 C 1677.585938 175.820312 1697.460938 198.496094 1709.679688 223.964844 C 1713.804688 232.503906 1717.628906 240.453125 1718.21875 241.632812 C 1719.839844 244.871094 1726.90625 245.3125 1728.085938 242.222656 C 1728.527344 240.898438 1727.9375 228.972656 1726.613281 216.015625 C 1725.285156 202.910156 1723.667969 186.125 1723.226562 178.765625 C 1722.046875 162.863281 1722.34375 163.160156 1706.589844 158.449219 C 1672.285156 148.289062 1639.15625 144.167969 1615.894531 147.550781 Z M 1615.894531 147.550781 " fill-opacity="1" fill-rule="nonzero"/></g><path fill="#085044" d="M 1328.796875 148.289062 C 1289.925781 154.03125 1251.644531 177.292969 1231.035156 207.621094 C 1185.097656 275.203125 1199.675781 379.734375 1261.214844 423.609375 C 1326.585938 470.28125 1418.457031 457.324219 1465.574219 394.605469 C 1485.007812 368.691406 1492.808594 344.105469 1493.988281 304.207031 C 1496.195312 224.996094 1460.417969 173.171875 1388.421875 151.527344 C 1379 148.730469 1340.277344 146.667969 1328.796875 148.289062 Z M 1371.199219 165.515625 C 1391.808594 174.9375 1404.324219 195.550781 1412.863281 234.269531 C 1418.164062 258.5625 1419.195312 333.800781 1414.484375 357.207031 C 1404.472656 406.382812 1386.953125 431.558594 1359.417969 435.976562 C 1309.359375 444.222656 1280.503906 394.457031 1280.503906 299.789062 C 1280.652344 229.558594 1293.902344 187.15625 1321.726562 168.902344 C 1335.273438 159.917969 1356.03125 158.59375 1371.199219 165.515625 Z M 1371.199219 165.515625 " fill-opacity="1" fill-rule="nonzero"/><path fill="#085044" d="M 939.519531 156.535156 C 938.929688 158.449219 937.898438 164.777344 937.308594 170.816406 C 936.277344 183.183594 933.1875 201.585938 929.800781 215.867188 C 926.855469 228.675781 927.003906 229.558594 931.125 231.472656 C 936.425781 233.976562 939.074219 231.621094 944.375 219.402344 C 959.835938 183.769531 987.808594 164.191406 1019.609375 166.839844 L 1025.5 167.28125 L 1025.058594 193.046875 C 1024.617188 218.074219 1023.4375 262.097656 1020.347656 357.945312 C 1018.285156 418.75 1016.667969 424.050781 997.085938 433.472656 C 990.164062 436.859375 987.074219 439.214844 986.777344 441.277344 C 985.894531 447.3125 988.25 447.460938 1028.003906 445.839844 C 1054.800781 444.664062 1073.496094 444.664062 1092.785156 445.839844 C 1121.199219 447.460938 1123.996094 447.019531 1123.113281 441.425781 C 1122.671875 438.332031 1121.347656 437.300781 1113.25 434.359375 C 1101.765625 430.085938 1093.375 418.898438 1091.753906 405.648438 C 1091.164062 401.671875 1091.460938 368.25 1092.34375 331.445312 C 1093.375 294.636719 1094.402344 242.664062 1094.992188 216.160156 C 1096.023438 160.363281 1094.550781 164.777344 1112.367188 166.691406 C 1144.609375 170.226562 1161.984375 184.65625 1175.824219 218.664062 C 1180.238281 229.707031 1180.828125 230.589844 1185.097656 231.03125 C 1191.871094 231.769531 1192.019531 229.707031 1187.601562 197.609375 C 1185.539062 181.710938 1183.625 165.367188 1183.332031 161.390625 L 1183.035156 154.03125 L 1061.867188 153.589844 L 940.84375 153.292969 Z M 939.519531 156.535156 " fill-opacity="1" fill-rule="nonzero"/></svg>